<?xml version="1.0" encoding="UTF-8" standalone="no"?>
<!-- Created with Inkscape (http://www.inkscape.org/) -->

<svg
   xmlns:dc="http://purl.org/dc/elements/1.1/"
   xmlns:cc="http://creativecommons.org/ns#"
   xmlns:rdf="http://www.w3.org/1999/02/22-rdf-syntax-ns#"
   xmlns:svg="http://www.w3.org/2000/svg"
   xmlns="http://www.w3.org/2000/svg"
   xmlns:sodipodi="http://sodipodi.sourceforge.net/DTD/sodipodi-0.dtd"
   xmlns:inkscape="http://www.inkscape.org/namespaces/inkscape"
   width="9.9999997e-006"
   height="1122.5197"
   viewBox="0 0 2.6458332e-006 297"
   version="1.1"
   id="svg8"
   inkscape:version="0.92.3 (2405546, 2018-03-11)"
   sodipodi:docname="drawing.svg">
  <defs
     id="defs2" />
  <sodipodi:namedview
     id="base"
     pagecolor="#ffffff"
     bordercolor="#666666"
     borderopacity="1.0"
     inkscape:pageopacity="0.0"
     inkscape:pageshadow="2"
     inkscape:zoom="0.3"
     inkscape:cx="-140.09813"
     inkscape:cy="22.857143"
     inkscape:document-units="px"
     inkscape:current-layer="layer1"
     showgrid="false"
     inkscape:window-width="2560"
     inkscape:window-height="1377"
     inkscape:window-x="1912"
     inkscape:window-y="-8"
     inkscape:window-maximized="1"
     units="px" />
  <metadata
     id="metadata5">
    <rdf:RDF>
      <cc:Work
         rdf:about="">
        <dc:format>image/svg+xml</dc:format>
        <dc:type
           rdf:resource="http://purl.org/dc/dcmitype/StillImage" />
        <dc:title></dc:title>
      </cc:Work>
    </rdf:RDF>
  </metadata>
  <g
     inkscape:label="Layer 1"
     inkscape:groupmode="layer"
     id="layer1"
     transform="translate(0,8.392334e-6)">
    <path
       style="fill:#000000;stroke-width:0.35277778"
       d="m 243.38295,296.41172 c -78.71017,-0.39585 -157.487531,0.79007 -236.1576209,-0.69603 -0.65774,-4.6078 -10.39045,-4.81653 -6.16639,-18.48232 0,-117.46923 0,-234.938463 0,-352.407703 10.3947399,-18.27694 35.2856499,-5.54429 52.4724499,-9.32452 207.449181,-0.16554 414.898501,-0.0562 622.347751,-0.0864 -4.07693,8.11586 -4.58499,6.98436 -4.10153,15.16797 11.82949,-30.643697 4.28596,26.56564 6.56547,37.12776 0.0862,99.33253 0.0353,198.665123 0.0491,297.997683 -11.0281,6.27678 -12.15238,-16.08868 -11.59817,2.36363 -0.64793,2.37765 5.62642,17.62216 5.60093,0.94054 11.63201,-2.88242 3.58059,15.51227 6.01313,22.55834 -12.80611,-12.52338 4.38439,9.19645 -9.37166,4.84258 -141.89192,-0.0743 -283.75984,-0.13027 -425.65347,-0.002 z m 134.5588,-0.70609 c 1.0713,-4.07322 -1.92054,-1.38895 0,0 z m -72.00258,-0.35069 c -0.16838,-12.19815 -0.38072,-4.54778 3.44757,-8.11389 12.47019,4.44373 7.72136,-7.18501 3.70416,-1.08507 -11.12837,-1.22216 -22.71359,-4.72016 -29.40015,-10.97431 -0.77446,-0.82817 -7.19167,-7.50217 -9.58179,-11.25705 -2.24844,-4.47665 -4.71615,-9.03006 -7.91333,-12.84315 -4.35709,-5.49371 -7.22443,-12.46052 -10.43112,-15.9511 -4.00812,-6.93978 -9.96521,-15.94654 -12.61925,-24.6502 -3.44952,-6.52508 -3.54904,-14.75285 -6.20201,-20.77275 -1.78013,-12.92653 -5.46809,-24.91344 -9.04821,-36.52177 -1.16233,-6.11306 0.96615,-12.58992 0.51266,-17.31281 -5.72505,10.95223 0.41245,22.53222 2.74139,32.74261 2.29228,9.10577 3.97141,15.55919 5.72346,25.27425 2.15999,10.23973 5.42977,19.7892 9.66522,28.5831 2.44875,5.28419 6.87998,10.818 11.18592,18.08141 1.17242,4.97543 6.81701,7.67942 7.80997,12.15984 1.41441,1.86538 5.63809,8.59657 9.16903,13.72568 3.56472,6.66068 8.66213,10.55579 16.10446,15.86266 7.89568,2.68463 16.25204,1.52431 15.1321,13.05277 z m 171.61432,-0.0889 c 4.09229,-1.52523 -1.74071,-7.5102 -2.79093,-10.01397 -1.07517,-2.46295 -8.62234,-11.14085 -8.55369,-16.96373 -3.25202,-3.23837 -4.87684,-13.82829 -7.21148,-18.24611 -3.0074,-7.54805 -6.56493,-14.99477 -6.69487,-22.93329 -2.01648,-21.61302 -4.1258,-45.20347 -5.89884,-67.36352 10.81566,7.51109 25.45835,-1.84092 24.40185,-14.93806 4.96568,-11.4218 4.75444,-26.86338 5.9459,-40.57084 1.04504,-10.403063 -0.33214,-18.821373 -3.83821,-25.589353 -0.65834,-6.43943 -8.96198,-15.36931 -16.73058,-9.99319 -2.94251,4.06189 -3.6615,-16.1982 -1.50529,-9.30847 0.89959,-5.08304 -0.74275,-11.10173 0.68811,-15.89535 -2.04861,-5.78911 -0.28068,-7.78885 -1.99552,-16.3838 -1.67851,-5.15616 2.1089,-8.47923 0.15914,-9.80045 -0.16069,-5.8359 -2.35556,-4.82605 -2.45286,-9.6032596 -0.88008,-4.71171 0.15419,-5.15243 -3.37816,-8.83202 -3.02619,-1.99434 -0.6293,-9.9470204 -5.44026,-9.7065604 3.80129,-0.92544 -8.43473,-5.3188 -4.4743,-7.79006 -3.24346,-5.44921 -2.25921,-6.06158 -6.12991,-9.09641 -4.26506,-5.03008 -7.92788,-5.67004 -14.11981,-11.23729 -7.15646,-1.02601 -8.46337,-8.17104 -11.35431,-10.22173 -4.78406,-0.27936 -10.72514,-6.66917 -10.90855,-6.16538 -5.37531,-1.07963 -7.56237,-7.7659 -12.0621,-5.19955 -5.25982,-4.31708 -6.67623,-1.35658 -10.32242,-5.85513 -3.4122,-0.9063 -6.29881,-8.02972 -11.44433,-2.62369 -2.29702,-3.18593 -10.56335,-4.55232 -16.2776,-6.40289 -3.93496,-1.25988 -10.62634,-1.47541 -15.84582,-2.44055 0.75315,2.37584 -3.22332,0.64442 -9.03212,-0.236 -2.5937,2.54169 -11.0736,3.17642 -15.9251,1.69594 -6.96725,2.54355 -4.87994,5.41801 -13.62775,3.33346 -4.67194,5.44258 -3.53128,8.04006 -10.03222,8.30623 1.28517,0.73518 -9.20301,6.60249 -7.47431,5.6216 -5.78553,1.83613 -6.20791,3.83175 -12.5236,8.46666 -9.5549,3.49166 -1.99786,12.46662 -11.06456,10.15299 1.02065,-1.14209 -9.06685,10.46641 -7.69829,8.97912 -3.20558,2.59203 -0.95926,4.15771 -3.89108,6.18769 0.51144,1.5916 -6.4372,6.20712 -4.684,5.60722 2.33462,3.71791 -10.41622,4.17995 -6.85746,7.70654 8.17853,-0.93005 -4.27443,9.2690304 1.59953,8.3482404 -5.99934,2.12464 -2.64145,3.00229002 -8.32638,7.87514 5.3785,0.26528 -2.5383,7.7082496 -2.36934,5.11528 -3.05559,7.4677996 5.07612,4.2074296 -0.21654,8.5548696 4.69089,2.14629 2.43774,5.59871 0.66531,10.11052 4.16708,4.37986 1.91822,3.23476 -0.476,6.34334 0.16724,1.10676 0.3167,4.01889 0.74681,6.52922 0.54449,6.17182 1.3286,2.95978 -0.047,9.38431 0.57333,2.35988 2.20092,8.2367 2.18686,10.68111 1.16735,2.28549 -0.50523,4.87434 1.52364,9.18216 0.71685,4.3292 -0.91928,7.33785 2.24035,9.77003 6.01187,10.83454 -9.97478,9.46284 -14.70747,15.22064 -4.42959,6.910893 -16.03655,17.044673 0.89165,18.499783 1.24351,7.0586 4.48373,16.37572 13.86984,14.83267 10.55553,0.84573 -0.25935,11.68815 8.94548,0.16513 10.25628,-0.33506 20.21583,-1.98682 29.41666,-5.55278 -2.82408,2.54784 18.04606,-6.65588 9.9485,-3.94119 5.99205,1.29739 9.39621,-16.45227 9.95766,-9.36985 -3.18028,7.22392 7.72342,-9.00555 1.37174,-10.965043 -2.99729,-7.41732 -1.46245,-8.55339 13.09489,-10.96392 4.96183,-0.68693 1.52379,0.0345 6.37674,-0.51758 8.03727,-4.05233 7.56312,12.791543 12.53574,15.261863 9.56058,11.4864 28.44226,3.67592 39.73879,3.13512 12.46653,-2.22962 12.21581,-4.17373 21.77379,-4.07983 0.10746,-1.24326 3.01106,-2.394893 5.51513,-3.359973 6.42261,-3.24423 17.25917,-3.9125 17.28472,-14.66274 -9.65484,-18.13401 14.83411,-13.60012 13.30526,-16.80979 -7.86412,-0.98549 -18.64277,7.94064 -16.46448,-3.9936 6.01066,-3.67315 17.13818,-4.21572 23.79807,-0.39616 5.0817,0.47417 11.1867,3.4497 4.76248,-0.8023 -10.00802,-5.12245 -24.34,1.50809 -30.61032,-5.60149 -4.46102,-4.39211 -10.79845,-2.93723 -17.36744,-1.84029 -10.90086,2.06662 -15.16521,0.66881 -25.13976,4.06165 -9.65772,1.48725 -17.52189,4.81469 -27.28142,7.51382 -4.38631,1.81715 -7.56782,2.46135 -13.47442,5.98374 -4.67489,3.35941 -5.94567,7.06992 -10.3252,8.34515 -4.29003,1.97952 -7.01143,2.50854 -11.38661,2.59607 -7.96328,4.62158 -16.37345,-5.61614 -25.74596,-3.24061 -8.51514,2.43387 -20.3666,2.8416 -25.59259,4.21516 -8.78353,3.36981 -14.7682,3.22892 -12.30743,-6.45039 -4.55492,-2.86604 5.81537,-3.93618 6.61458,-2.54222 3.4644,-3.21466 11.47674,1.62681 4.32378,-2.97078 12.74495,-0.97616 13.6851,0.73436 2.64898,-2.15189 4.12203,-2.60653 7.88453,2.69226 15.28125,-0.0856 7.72667,2.72932 7.34468,4.37204 13.49979,0.7541 2.43796,6.15061 5.16411,-2.62294 -0.14785,-4.20683 7.77366,-1.26544 4.34949,-4.5042 -3.64131,-3.01383 -7.78702,-0.37842 -1.95388,-0.86785 -6.02191,-2.48079 2.11055,-4.2086 -3.97355,1.76172 -4.69358,-2.18298 -0.78043,1.22181 -10.39004,2.75945 -5.64847,0.5195 2.49906,-1.55815 4.2864,-3.67186 -2.07751,-2.20483 -0.89061,-2.38427 -17.35838,2.33625 -5.28671,-0.40058 3.70818,4.08096 -7.32896,4.44543 -7.86218,8.22206 1.33771,-3.06346 -6.99034,-4.54294 -1.60899,-6.76309 5.57354,-4.33893 -0.85055,-1.95754 -4.83165,-3.21127 0.004,2.02286 3.0661,3.1999 -0.13053,4.30727 -3.13256,-0.0705 5.43426,6.95765 0.66241,6.75332 -8.88776,0.66406 1.49231,-2.4034 -4.33959,-5.73264 -0.80006,-3.02386 -0.36578,-3.29594 5.26292,-7.60019 1.15395,-4.33177 8.10868,-22.58874 5.91001,-21.22056 2.15834,-11.73524 9.20648,-22.7940596 14.39974,-32.6901596 3.95997,3.98816 0.91672,-6.03171 -1.40004,0.48035 -6.39895,7.96159 -8.73673,16.7200696 -13.4166,24.3416996 2.20602,1.31147 -6.67894,17.54322 -6.59369,16.89178 3.81398,3.85943 -6.05589,9.80298 -2.21936,2.8105 1.19151,-0.37997 -6.05384,-5.09994 1.22838,-8.04131 8.2499,-4.0943 -7.88954,0.0705 -0.35601,-4.07218 -0.33275,-5.47238 0.90212,-4.14069 -3.9663,-5.63655 -1.68921,-1.54815 8.9512,-3.47606 8.20286,-8.80312 -1.93158,-2.06654 -11.3304,0.94801 -5.11086,-1.55236 10.81721,-0.66073 0.347,-3.30082 5.81595,-5.8843896 -2.71864,-2.59337 -5.97757,-0.42443 1.01639,-3.17736 3.0525,-1.30489 -5.4473,-3.30323 0.67354,-7.88788 3.26818,3.47541 6.90798,0.98051 2.97946,-2.36398 -7.06875,-1.50416 2.22275,-13.1133804 1.66661,-6.6877704 -5.62997,6.3846404 14.24152,0.81303 4.92108,-0.21529 -7.78498,1.49268 -0.52392,-10.01083 1.04545,-2.86263 0.79764,-5.27864 6.68627,-0.0532 7.05784,6.2354004 1.28957,-8.2664804 4.64965,-2.4070104 4.44324,-12.2326304 4.1794,3.44565 0.58901,-9.63365 4.06615,-2.57846 6.00102,-2.86716 -2.04517,9.97023 3.31354,11.52166 -0.23424,-19.63607 2.63865,9.6465704 4.66137,-2.72695 3.7108,5.9080104 1.56665,-7.4638 3.33079,-2.19746 5.42893,-1.37347 3.16083,-2.62045 6.8367,1.18401 -4.38954,-5.8081 2.90548,-7.54538 2.60264,-3.25112 2.8557,-2.66002 5.3479,3.28169 6.06612,-0.80519 6.80907,0.1431 -9.34515,-7.35186 -4.89263,-5.7651 -9.77986,-9.22435 19.95791,5.3927 7.84662,1.25119 6.06479,0.1307 -5.11973,-5.33172 -4.2847,-5.42622 -5.34089,-6.28119 3.66883,1.2444 0.75124,-3.99853 -9.38629,-5.00026 3.78201,-6.03745 3.12108,1.94421 2.78899,6.25647 4.65173,-1.27342 8.35253,-1.52012 2.01108,-6.82947 2.8045,1.94115 3.09612,-3.92996 2.32,1.73321 0.54977,8.34653 7.37219,3.30167 -0.64793,-8.10424 0.1431,-0.52692 4.48458,-2.566 -0.70971,-7.14363 10.80212,9.35073 7.96489,-1.49289 3.64515,1.56328 6.60893,11.76096 5.58598,1.97397 7.41858,7.56248 1.21251,-4.44756 1.45347,-8.74889 3.79753,1.01352 6.60334,7.09712 7.72959,9.23058 3.65367,1.65899 6.38127,-1.19721 1.368,-7.71364 -1.59479,-6.61574 1.73543,4.2071 3.83458,-0.57577 -0.26511,-5.7136 3.44431,-3.74796 6.01198,0.75216 -5.11771,0.62344 3.72929,5.12464 -1.94027,3.18046 -4.89442,0.47665 3.04025,9.86378 3.58756,7.62153 6.74664,0.18204 0.94254,-3.13611 7.90487,3.45856 -3.50703,-15.02448 4.87643,9.20939 4.66298,7.61167 4.43916,-1.02455 -5.31509,-11.39629 0.26321,-13.29721 6.02667,4.11469 2.22794,-4.86005 6.05542,1.76983 0.54043,7.1393 5.95938,2.05178 1.25697,0.17664 1.1653,-4.18007 -4.96169,-7.65753 1.89778,-5.93481 -0.74903,5.71775 3.86535,0.43533 3.6078,4.38194 2.5372,8.33095 2.98873,3.07533 2.60892,-1.4016 2.21715,3.44985 7.90009,7.64813 5.70015,9.60152 6.1811,10.53777 5.18928,-3.16132 0.7214,-5.8057 1.45431,-1.57107 -1.41955,-4.80975 0.11232,-6.64997 5.28466,4.09183 0.0633,7.99281 4.0483,7.56148 -3.70546,0.36656 6.17077,12.29195 4.78043,12.0105 0.23367,-5.57849 0.47966,-10.66547 3.09385,-10.12495 0.0452,-0.75502 -5.89072,-14.84805 2.21188,0.24744 3.63626,1.72096 -2.47588,2.70518 0.81106,6.96942 -0.54703,-6.25624 6.29973,6.83088 5.99691,1.50102 -2.80795,-5.37301 -11.44177,-15.95074 -1.11248,-8.50411 10.47931,10.85808 -6.82684,-9.04333 5.37866,0.94401 4.71075,5.5361 5.92322,1.93213 -0.21949,-2.51576 5.76641,2.56867 12.06158,5.27592 16.62486,8.98216 3.5,6.75739 -5.20229,5.14343 5.62725,8.90767 -1.2313,-2.2579 -1.88081,-6.8411 -4.40672,-6.26174 1.72845,-5.69389 3.17204,2.24709 5.57994,3.60451 2.30742,3.80301 0.2385,3.35199 5.37028,5.9953604 -1.72758,-1.9218104 3.66463,-5.6650504 1.67585,-2.2269804 10.46304,0.62761 1.42602,6.1182104 -0.007,0.65273 -2.33746,10.59637042 6.05088,5.2229504 7.53877,10.82319042 -0.24117,1.70623998 -4.40402,5.54760998 0.72192,4.08164998 5.27583,1.64121 -3.20849,2.48467 1.05648,3.0261 3.86898,3.9193296 1.86081,9.3891696 3.8303,8.9391996 0.16142,5.32376 -2.94757,6.5154 -1.93147,10.39676 3.71891,0.96286 2.03565,9.29312 4.4378,16.65102 -3.10871,5.51495 2.39343,12.22399 -2.29654,13.66742 2.04337,4.37843 0.25762,11.79716 -1.00399,14.5639 4.43928,3.42446 14.28721,-7.69166 15.25767,-1.85442 -0.22987,4.8217 4.06429,-2.18352 4.37091,4.41296 3.2546,5.41761 4.73709,11.7743 6.53513,18.97214 0.84212,9.080983 -0.62131,19.229283 -2.6446,27.508373 2.23965,-3.22548 0.54436,8.69705 -1.32162,14.3488 -1.07425,3.21658 -3.14606,11.77204 -3.62088,16.47624 -0.25448,5.70906 -13.90569,12.86113 -21.04756,6.41429 -4.73355,-2.98981 -3.12325,4.05669 -2.20683,6.74236 0.51186,9.05765 0.16229,10.92083 2.11855,16.24138 0.79162,9.63873 1.24293,17.64292 2.8844,33.49375 1.90298,11.61698 -1.23767,18.02301 3.41857,24.20865 0.49532,4.7421 3.37849,10.82962 4.53971,13.49521 -1.37979,3.03917 2.84939,4.78556 5.33006,12.96484 -0.26344,3.32731 6.03746,12.87653 7.01431,17.06054 3.0311,1.68203 6.29806,10.74208 6.69039,10.43481 1.80675,0.5999 -0.43192,2.05142 0.79552,2.34748 z M 226.62221,126.70262 c -13.10648,3.0868 -7.60177,-8.07644 -10.92772,-10.15793 -9.95366,1.52064 4.88508,-10.66884 3.70704,-2.61457 9.62932,1.17608 1.94135,3.14817 0.003,0.80285 -5.51119,-3.0535 -1.6774,0.44767 -0.21627,3.72868 -1.60663,4.31332 10.13296,3.82435 3.59997,6.48753 5.06755,-5.06562 -12.84908,0.5213 3.61901,1.08258 2.1953,-3.12236 -11.19258,-9.73499 -0.056,-9.21159 2.7202,-5.27795 3.26163,-10.75699 -0.55754,-10.72024 -1.24879,-5.73853 -4.27666,2.27849 -5.98142,-4.98662 -6.81568,-1.160253 -2.66188,-11.138363 8.67871,-12.132843 -1.66029,2.54599 0.45377,19.093133 0.82825,14.984723 0.12234,-9.526093 -3.42683,-15.707793 7.98985,-16.715783 12.4672,-2.89302 0.16777,0.63564 -1.46517,7.32847 -0.30813,-8.70647 -1.70374,17.448123 2.53427,-1.71686 2.42856,-7.64293 18.97721,-7.34624 20.00161,-5.69305 5.23169,-0.286 9.43618,4.46891 12.26052,6.96474 -2.69198,8.228083 6.09081,-0.15768 -4.56582,-6.65871 -14.37063,-3.61521 -10.47341,-4.07616 2.70991,-3.69379 1.47108,-1.32141 9.97696,0.42712 9.04349,6.39158 -1.15403,8.11112 0.47406,15.356823 -2.86295,23.085213 -2.43915,4.26699 -5.65271,2.2418 -6.22903,4.5848 -7.02266,1.81839 -18.13834,6.30437 -22.53458,5.00533 -3.61993,3.51662 -21.27731,1.39575 -4.90115,2.83839 -5.02513,1.27887 -9.63938,0.27575 -14.67838,1.0171 z m 2.49446,-0.73924 c 2.76843,-4.28037 -3.07461,0.63864 0,0 z m 0.0452,-8.05567 c 1.26787,-4.45224 -2.09118,-3.38847 0,0 z m 5.83136,-8.3756 c 4.17359,-2.15665 6.45035,-11.288863 14.86304,-6.53624 5.24063,0.0897 -13.28007,-6.878413 -12.08347,0.62421 6.05175,-3.30389 -7.33753,7.55551 -2.77957,5.91203 z m 27.95951,-5.36613 c 13.2679,-6.408863 -4.79716,-2.31198 0,0 z m -5.27705,-1.56677 c 3.47741,-3.959883 8.2584,-1.03992 10.85933,-7.551503 -0.93049,-2.09119 -9.82827,7.534333 -13.45525,2.39889 -1.57438,-4.43056 6.82252,-3.92839 0.35278,-4.58615 -6.68158,0.79873 14.2973,-5.66356 -1.42918,-4.14513 -0.0255,-3.60703 -13.90504,7.20545 -7.41108,4.63657 6.16582,-10.08334 3.31636,5.04978 9.81594,7.307923 l 0.0342,1.14475 1.23334,0.79461 z m -0.45511,-12.221583 c -3.59968,-1.9138 3.67034,-1.91474 0,0 z m -13.62694,9.727563 c 3.06772,-9.671673 -4.72252,-1.728443 0,0 z m -2.31683,-6.694023 c 2.51619,-3.55946 -2.61661,0.8191 0,0 z m -10.55116,-1.25623 c 2.68884,-1.82414 -2.94928,-2.97942 0,0 z m 6.67355,-1.05834 c 1.8529,-2.8863 -1.76374,-3.0546 0,0 z m 5.92127,-0.70555 c 5.17544,-1.81376 0.57408,-4.1204 0,0 z m -27.71622,31.044443 c -3.53047,-4.15776 5.03071,-4.81033 0,0 z m 6.42948,-7.97075 c -7.71684,-1.28833 4.23972,-1.70853 0,0 z m -7.73846,-2.2598 c -0.36129,-2.4449 -7.43287,-5.1767 -0.25036,-3.272 12.86848,0.56339 9.58916,-1.36588 0.25036,3.272 z m 64.99737,-1.46792 c -3.083,-11.635213 5.30114,-18.011913 0.3275,-1.41004 z m -74.28801,-0.11838 c -11.11598,-5.95753 9.72853,-8.08384 0,0 z m 14.79466,-3.58973 c -3.72624,0.98733 -8.66677,-5.65903 -9.39622,-1.47911 -0.86407,-13.725493 1.26492,2.82417 1.46219,-9.006523 3.39469,-0.0354 3.11289,6.122253 3.36636,5.640613 0.47826,9.66406 6.04601,-4.696943 4.56767,4.84502 z m 110.99764,-0.97707 c -9.69494,-0.21373 -11.54028,-4.52222 -15.06024,-12.191353 5.66312,12.441003 1.38321,-10.66207 5.21135,3.34091 2.91331,4.707463 -3.31831,-10.11295 -6.05801,-10.58389 -7.52459,0.4569 -3.10361,-14.16959 3.79725,-13.74935 10.46045,-4.50567 23.15581,-7.62055 34.50363,-10.89693 7.78879,0.40667 19.93794,-4.76461 30.43947,-4.4207 10.10812,-0.21944 9.70393,4.80098 12.01537,14.40953 4.10001,9.68562 0.0702,21.03916 -10.69784,21.51776 -5.54627,3.78226 -12.38798,5.65003 -17.44737,6.96691 -0.3214,2.856963 -13.30288,1.915373 -16.89584,3.332243 -6.11255,1.40687 -13.09349,2.03508 -19.80777,2.27487 z m -2.09566,-15.022673 c 4.27999,-5.51826 4.5509,-12.88928 11.27259,-16.92421 8.60184,-6.22605 20.12902,-7.59925 29.73781,-4.52927 3.41743,1.0368 7.96212,0.90639 1.94028,-1.55378 -3.66875,-1.0735 -17.93744,-2.77986 -24.67282,0.17342 -4.92482,1.02673 -16.51921,12.46671 -14.15602,10.35074 -1.46561,3.99747 -4.74405,7.99597 -4.12184,12.4831 z m 1.68048,-1.40201 c 4.48539,-3.29415 10.32179,-3.65954 14.89917,-3.61642 3.30371,-2.0868 4.04965,2.29381 6.79195,-0.8951 2.71469,3.34263 2.72365,-1.13067 10.00774,-2.82203 4.42488,-8.39206 2.19549,-15.9676 -1.04264,-0.51754 -11.56573,3.98154 -13.42429,-3.76961 -10.21717,-6.71027 7.44284,-0.10714 3.62093,-6.50098 -3.14493,-2.96037 1.69377,-4.4281 -10.0993,7.03324 -3.70543,2.92609 2.66474,5.2639 9.20944,10.954 -1.73458,9.33604 3.17626,2.07343 -13.25535,-0.8426 -12.03497,4.92721 l 0.18117,0.33196 z m 18.16327,-11.64167 c -3.03966,-3.191 2.68157,-3.84176 0,0 z m -4.16174,-3.88744 c -2.50725,0.89675 2.39254,-2.95486 0,0 z m 25.62657,3.79456 c 3.75788,-9.48903 -11.06822,-6.51081 -1.81034,-3.95514 0.33474,-2.53663 3.69456,1.89476 1.81034,3.95514 z m -35.70679,-1.67101 c 5.49559,-3.7974 0.95175,-1.88546 0,0 z m 43.46801,-3.3177 c 2.04109,-2.44772 -4.97822,-3.33206 0,0 z m -27.85394,-2.10642 c 4.29147,-1.65462 -3.88827,-0.26905 0,0 z m -66.60242,35.057463 c -0.38946,-6.161143 1.94159,-6.462723 0,0 z m 37.96905,-0.4906 c -5.02749,-5.097823 -3.7578,-5.751363 0,0 z m -104.33293,-0.92051 c -1.2503,-3.11418 1.02587,-3.744583 0,0 z M 391.93668,91.568507 c -1.46993,-0.27585 5.60484,-2.14169 0,0 z m -110.24304,-3.29413 c 0.22754,-2.18914 6.42903,-1.28196 0,0 z m 32.47637,0 c -2.86984,-0.9284 -1.61731,-3.02858 0,0 z m -25.58663,-1.83034 c -2.29114,-0.4543 9.05548,-2.12782 0,0 z m 20.36233,-0.79227 c -3.62386,-0.0206 -0.98903,-14.1243 0,0 z m -14.01652,-0.55356 c -5.55006,0.1939 5.75113,-1.51547 0,0 z m 3.52139,-0.86468 c 0.0373,-1.45295 14.18835,-2.93979 2.11666,-0.28226 z m 11.58766,-0.91242 c -1.72356,-4.15425 -0.73484,-6.83396 0,0 z m -84.65639,-9.32992 c 0.64466,-3.94071 2.91895,-5.69358 7.32814,-5.05723 -3.01074,1.20901 -5.09874,2.69738 -6.84091,4.61954 1.39125,-0.32002 -0.86191,-2.11358 -0.48723,0.43769 z m 6.1792,-0.32181 c 8.3556,0.75318 3.68472,0.46387 0,0 z m 4.36009,-1.93419 c -11.0776,-1.72823 4.02084,-0.24701 0,0 z m -11.3775,-0.74692 c -2.75456,-2.1917 5.10996,-6.24613 0,0 z m 40.28404,-0.74648 c -6.25538,-3.27474 -6.64304,-5.50796 -0.0385,-0.86525 l 0.67026,0.56378 -0.63179,0.30151 z m -12.56958,-0.37038 c -11.97368,-1.66335 -0.48709,-3.51697 0,0 z m 5.14978,-0.44328 c -4.2873,-1.82609 3.87906,-3.01063 0,0 z m -3.69274,-1.26208 c -4.38843,-2.1772 -17.32085,-7.04201 -5.69096,-4.58601 0.73037,2.49625 13.27404,1.83051 5.69096,4.58601 z m 11.90629,0 c -2.12419,-4.03647 -1.66435,-5.47587 2.25078,-1.51322 -0.27552,1.98187 -2.09992,-0.95685 -2.25078,1.51322 z m -33.85559,-0.70556 c 0.69663,-4.97274 7.13343,-1.72656 0,0 z m -1.94817,-1.45521 c -0.69676,-1.77747 1.65968,-0.38492 0,0 z m 8.17121,-0.67487 c -2.34574,-1.63134 2.51864,-3.22553 0,0 z m -7.58666,-8.45325 c -0.46054,-4.06945 4.06659,0.0442 0,0 z m -8.8651,-3.1622 c -1.22537,-6.89455 8.07018,-8.63356 4.4384,-5.12297 -3.07721,1.67769 -2.32331,6.50169 0.74638,2.77926 0.32788,2.74728 -3.58329,2.27756 -5.18478,2.34371 z m 0.35832,-9.85797 c -4.18161,-1.45575 3.22251,-4.06016 0,0 z m 6.42815,-3.92438 c -0.88266,-1.6904 3.11653,-1.80374 0,0 z m -6.56785,-22.94782 c -1.45175,-0.47949 1.25758,-3.50487 0,0 z m 1.66909,-4.62554 c -2.77424,-2.29759 7.7056,-1.37932 0,0 z m -2.55596,-3.1124896 c -2.79702,-1.29396 1.89362,-2.4464 0,0 z m 226.10196,-4.71954 c -3.93347,-1.95068 3.77592,0.0939 0,0 z m -219.1322,-1.41381 c -1.4884,-5.08859 1.92688,-2.62877998 0,0 z m 217.91749,-1.26958 c -2.59133,-3.84311 2.16769,-1.70208998 0,0 z m -3.61597,-8.48009 c -4.68545,-2.18232 1.67608,-1.17545 0,0 z m -210.28852,-1.64289 c -6.51173,2.6437 3.05384,-3.5922604 0,0 z m 193.47654,-5.3992504 c -3.2373,-1.26971 0.038,-2.38917 0,0 z m 4.35575,-1.05833 c -1.54362,-3.17703 5.28681,0.51656 0,0 z m -189.97147,-1.55111 c -0.82836,-6.57318 -0.0456,-1.16376 0,0 z m 11.08146,0.14 c 0.0618,-7.10416 5.15742,-13.70247 0,0 z m 177.56709,-2.83564 c -1.82063,-2.84839 1.84933,-2.62699 0,0 z m 3.28838,-0.33936 c -3.64114,-5.71965 2.71193,-2.38424 0,0 z m -149.16198,-1.79699 c -5.26413,0.99583 -8.39455,-10.11031 0,0 z m 139.08263,-1.75367 c -7.1976,-3.90999 -3.37897,-6.82134 0,0 z m -177.65663,-2.09379 c -2.65055,-2.36718 0.52193,-2.21542 0,0 z m 30.49057,-0.35597 c -3.77696,-1.45647 -0.0253,-5.65456 0,0 z m -19.12691,-0.41652 c -4.65765,0.5869 -5.38835,-5.92164 0,0 z m 8.51235,-1.27188 c -4.97087,0.68713 1.13755,-9.00379 0,0 z m 125.30337,1.18763 c -3.12742,-4.28228 0.24196,-8.06446 -0.13646,-3.98744 0.26191,3.80837 3.17272,0.99783 0.13646,3.98744 z m 32.79189,0.15119 c -3.14237,-0.85624 -1.82956,-0.46098 0,0 z m 3.15246,-0.61736 c -1.40427,-4.33552 2.85834,-4.15964 0,0 z m -8.93516,-0.10232 c -4.37987,-3.30008 -1.6035,-4.93132 0,0 z m 7.62688,-0.18831 c -3.45441,-5.35752 -3.56223,-11.1846 0.15155,-1.50564 l -0.15155,1.50563 z m -10.05565,-1.20868 c -3.0494,-9.74402 -11.77608,2.61948 -10.09484,-5.82083 -0.73212,-2.3809 4.05381,5.41167 3.91807,-0.39789 3.57272,0.48276 6.28604,3.61895 6.17677,6.21872 z m 14.43962,-0.38794 c -3.10512,0.0138 1.25115,-4.11326 0,0 z m -160.0045,-1.02317 c -1.56664,-2.00561 2.05734,-2.58818 0,0 z m 147.35548,-0.35818 c -6.14546,-7.32359 -0.28454,-4.65427 0,0 z m -15.66538,-0.71088 c -3.4774,-0.94438 0.1723,-3.48722 0,0 z m 17.10873,0.0107 c -2.41481,-2.31709 3.36966,-1.17255 0,0 z m -145.97322,-0.35278 c -5.00294,-6.17682 2.0248,-19.93346 0.2963,-8.57501 5.14926,5.47369 -4.44022,2.98436 2.49047,6.9448 -0.37825,1.92911 -3.3044,-1.79488 -2.78677,1.63021 z m 108.56678,-1.41111 c -3.43506,-2.9986 -1.34587,-3.64525 0,0 z m 22.13349,-0.34955 c -1.55376,-5.34655 -0.68562,-1.18514 -4.02637,-2.10561 -3.68949,2.92789 -2.55439,-2.35226 -9.05429,-4.606 -6.80024,-6.52973 5.01885,0.66945 4.33007,-2.23499 4.11408,2.47427 9.91968,4.10867 9.19544,7.23379 2.68756,2.85408 -0.96031,-0.53763 -0.44485,1.71281 z m -107.94611,-0.97519 c -9.03316,-3.0664 3.36573,-1.56675 0,0 z m 9.32459,0.26644 c -4.24434,-2.214 5.98448,-3.66356 0,0 z m 53.59269,-1.2684 c -2.34113,-0.51471 -0.93859,-3.51295 0,0 z m 59.05563,0.19891 c -5.13548,-2.38105 2.18185,-5.88506 0,0 z m -28.52999,-0.34163 c -12.98565,-11.3237 0.54525,-2.89075 0,0 z m 31.22475,-0.28739 c -1.86783,-3.25039 4.58812,-0.0992 0,0 z m -142.31876,-0.0654 c -3.19833,-1.02388 -1.32747,-3.86378 0,0 z m 68.57322,0 c -1.34602,-2.73792 -0.72577,-4.66242 0,0 z m 62.16395,0 c -6.34415,-2.05976 -7.83298,-7.27991 0,0 z m 1.06098,-1.52642 c -0.93503,-0.89294 -6.78399,-3.45438 -2.10886,-6.21538 2.15041,6.18974 1.50526,4.00009 2.10886,6.21538 z m -149.76774,-0.23747 c -2.16678,-0.58761 0.45504,-3.80215 0,0 z m 29.88804,-0.35818 c -2.52331,-1.61262 0.36485,-3.83528 0,0 z m 87.13988,-0.024 c -1.13259,-1.97736 2.5942,-1.90841 0,0 z m -20.33044,-1.17185 c 2.58299,-5.08088 0.42663,-1.4411 0,0 z m -45.32541,-1.16286 c -5.00886,0.14027 2.61253,-5.05481 0,0 z m 77.42272,0.60024 c -3.69267,-0.20783 -0.84945,-3.85298 0,0 z m -18.61619,-0.62931 c -9.98217,-2.71248 -0.2329,-11.20913 -0.21749,-5.10083 -2.23406,1.84639 4.12745,5.58878 0.21749,5.10083 z m -108.67578,-0.66378 c -2.86436,-2.78709 8.14874,-3.18461 0,0 z m 111.24855,0.12077 c -2.57243,-5.52259 2.91191,-0.10524 0,0 z m 39.68634,0.46677 c -5.11262,-0.87731 -3.18416,-5.15995 0,0 z m -103.40708,-1.06618 c -5.56257,-3.02613 -2.86245,-7.4846 2e-5,0 z m 46.74539,-0.34494 c -2.07942,-3.20436 0.0271,-5.94138 0,0 z m -66.41714,-0.71095 c -4.26003,-2.35393 0.7376,-5.03788 0,0 z m 62.54002,-0.34738 c -0.76223,-2.86971 1.95785,-2.07546 0,0 z m -69.44388,-0.80831 c -1.45083,-1.81232 -1.70994,-13.37364 2.68293,-7.099 1.47224,-6.54843 7.73899,0.51216 6.86676,3.93714 3.66288,1.87523 -3.97875,1.35628 -5.34614,-1.15831 0.83516,7.51819 -3.18438,-3.25326 -4.20355,4.32017 z m 3.37608,-3.07764 c 1.07745,-3.45955 -2.81465,-1.38285 0,0 z m 112.63841,3.53317 c -3.82856,-1.85192 -1.42996,-6.44353 0,0 z m -14.91898,-0.49964 c -2.98112,-0.84199 1.62156,-3.17141 0,0 z m -3.52477,-0.21 c -5.72523,-4.44682 -1.11706,-5.57539 0,0 z m -120.98813,-0.70147 c -2.72675,-3.21209 3.17405,-1.36246 0,0 z m 148.51008,-0.54361 c -3.89675,-0.26241 -0.97663,-3.08264 0,0 z m -15.08954,-1.57305 c -4.46529,-1.48128 -0.75858,-1.99611 0,0 z m -114.1236,-0.35278 c -0.6445,-2.87994 -4.09848,-4.66653 1.03915,-2.11087 l -0.49748,1.49351 z m 49.33397,-0.11759 c -2.69817,-1.5991 -11.99363,-5.95787 -8.74275,-5.81801 5.64954,-2.96484 11.0342,-0.53004 9.83236,1.07932 8.25725,6.30437 -9.43879,-4.35169 -1.08961,4.73869 z m -54.16507,-0.25999 c -2.48283,-0.86704 0.63754,-3.92917 0,0 z m 36.77986,0.0248 c -4.44027,-1.24186 -1.0959,-6.23564 0.18867,-1.37292 l 0.33196,0.99792 z m 91.58759,-0.72652 c -2.99581,-1.76295 0.30518,-5.41911 0,0 z m -22.75216,-0.41266 c -7.45034,-3.35084 0.71756,-2.13396 0,0 z m 26.54297,-0.34227 c -2.93219,-0.22327 0.25695,-3.17721 0,0 z m -57.50756,-0.28244 c -5.87896,-2.98722 -3.35002,-7.1426 0,0 z m 39.21688,-0.35278 c -4.68183,-1.64457 -5.09763,-5.10519 0,0 z m -34.5764,-0.43834 c -5.80965,-2.4341 7.01594,-5.68809 0,0 z m -12.19481,-0.61999 c -3.49743,-2.64262 0.13712,-3.66322 0,0 z m 18.27647,-0.87276 c -3.39358,-2.27057 -2.43201,-8.23545 0,0 z m 17.941,-0.33551 c -5.76412,-2.56907 2.56682,-1.96993 0,0 z m -76.78458,0.14994 c -3.90469,0.0465 4.25499,-2.60783 0,0 z m -5.70416,-0.93083 c -6.64947,-6.65758 12.67566,0.063 1.64489,-0.2169 z m 76.89683,-0.1944 c -9.79661,-5.60373 3.056,-2.99445 0,0 z m 21.22547,-1.09195 c -3.87523,-3.20028 1.51826,-0.51343 0,0 z m -30.33451,-0.25227 c -3.0442,-4.42 -1.48716,-2.10631 0,0 z m -15.04491,-0.70555 c -7.12275,-0.8069 0.68547,-11.87995 0.0957,-1.32292 l -0.0958,1.32292 z m 17.74976,-0.46767 c -2.32916,-0.50728 -1.67507,-4.15424 0,0 z m -12.34542,-1.73209 c -3.34103,-0.36339 -1.67945,-4.81141 0,0 z m -35.25582,0.0831 c -4.85667,-5.04949 5.05506,-5.95874 0.98004,-3.15122 -2.11801,0.391 0.8248,3.09769 -0.98004,3.15122 z m -14.45554,-1.63041 c -6.94897,-0.26416 -2.4703,-5.35086 0,0 z m 53.2983,-1.05736 c -9.27379,-4.01367 -4.77534,-5.05505 -0.20692,-2.54401 0.32075,0.91216 2.69451,2.42049 0.20692,2.54401 z m -15.52374,-0.72876 c -3.34157,-1.7006 4.74861,-0.14096 0,0 z m -16.24852,0.15097 c -6.07887,-2.74304 6.41842,-10.37555 -1.1e-4,0 z m -37.66562,-0.26223 c -1.7825,-1.62706 3.53078,-3.05167 0,0 z m 14.7433,-2.27849 c -2.54524,0.58339 -4.12362,-5.23948 0,0 z m 66.39558,-0.41025 c -2.62488,-1.57377 3.79116,-1.05455 0,0 z m -70.63544,-0.66045 c -2.74868,-0.40941 -1.91143,-2.91306 0,0 z m 37.19211,-0.46081 c -6.8505,-4.4899 6.50991,-1.28865 1.56673,-0.42333 l -1.56668,0.42333 z m -15.26924,-0.51197 c -5.26703,-1.80496 4.30337,-3.19899 0,0 z m 35.9225,-2.02803 c -2.75668,-5.45533 5.81596,-3.43564 0,0 z m -40.18629,-1.46521 c -1.36292,-0.32347 -0.83918,-0.17239 0,0 z m 53.26511,-0.65145 c -8.80163,-1.94275 4.34683,-2.44913 0,0 z m -30.91465,-2.39411 c -5.22079,-1.5371 2.6012,-2.73879 0,0 z m 3.48388,-0.0753 c -4.42573,-3.57275 0.49771,-4.445 0,0 z M 645.93669,286.51471 c 10.04375,-7.78034 6.95592,-25.51365 -5.435,-22.51958 -17.98627,-15.24776 3.39967,7.51825 7.59051,9.38694 4.98925,18.27164 -10.55104,0.051 -2.15551,13.13264 z m 1.80209,-18.25367 c -4.27561,4.37674 2.93533,-6.33619 0,0 z M 65.321279,284.1371 c -2.65049,-3.43256 20.02262,-21.42348 8.55226,-10.08945 -8.00199,10.29278 10.3037,7.32251 9.32777,-1.59089 22.633551,-6.29496 -1.74281,1.62456 -1.3349,-5.50041 3.55143,-10.57023 -5.83141,4.64196 -3.44063,-12.55618 0.94992,6.52174 -3.68684,19.30582 -10.25407,15.02489 -7.1832,6.56495 -2.68219,-15.45717 5.2725,-14.97052 1.2465,-8.37603 -18.3854,10.93523 -11.34629,18.85706 0.46865,10.65081 -8.86226,-16.77141 -13.50227,-0.94244 -4.78236,13.96261 -10.86031,-11.07386 -9.82648,-18.64205 -8.43223,20.2973 7.01686,29.75961 25.23209,26.01734 1.13297,0.78142 0.87996,5.39528 1.32002,4.39265 z m 12.11405,-5.1114 c -10.69581,-0.28268 7.04082,-9.80321 0,0 z m -21.43125,-3.10536 c -14.08944,-4.87814 5.31703,-9.29298 0,0 z m 10.8792,-1.2507 c -5.12769,2.02977 3.89394,-3.28927 0,0 z m 407.291771,8.69085 c 2.47551,-1.95101 -2.90383,-1.63579 0,0 z m -163.19607,-1.14907 c 1.20448,-3.08852 -2.15422,-2.65038 0,0 z m 354.00337,-1.57695 c 6.32808,-6.68348 -6.48236,-17.11279 -6.69661,-10.29355 0.8492,-23.07062 -4.49394,-10.70614 -2.37626,5.21028 3.50927,7.5722 6.06696,-12.31786 8.54234,4.98705 -3.55128,-2.2206 -0.96665,1.01573 0.53053,0.0962 z m -79.54704,-1.50731 c 5.8287,-4.34808 -6.24059,-32.51312 -3.91205,-17.81879 -0.8528,-4.48703 1.74368,10.99236 3.91205,17.81879 z M 14.464499,278.68329 c 14.1938,-3.21893 -2.70163,-14.47882 11.64161,-17.73599 -12.91463,-16.64064 -24.9719499,16.21572 -15.96297,11.5985 -7.0697499,-14.31008 21.95456,-13.71051 4.66358,-5.62175 17.65903,10.55942 -13.0325899,7.20563 -0.34222,11.75924 z m 575.733311,-0.46348 c 16.70364,-1.14046 1.94429,-15.96503 11.7974,-18.54226 6.45435,-11.40725 -36.11074,-7.92915 -9.19113,-4.95587 14.91556,1.29744 -2.98076,8.24743 3.10903,17.71481 0.46405,3.49833 -14.89476,2.89874 -5.7153,5.78332 z m 24.62706,0.20003 c 2.48358,-13.8359 -3.46296,-27.31144 -2.05409,-5.52349 0.0372,2.30198 -0.61199,4.50901 2.05409,5.52349 z m -321.77733,-0.68432 c 2.61578,-0.0111 -0.28767,-2.15381 0,0 z m 39.00513,-0.13741 c 1.5271,-4.85992 1.78948,-7.487 -0.86722,-3.70867 -0.16406,1.31508 0.21851,2.56705 0.86722,3.70867 z m -33.47042,-1.39361 c 1.26408,-4.39312 -2.48434,-7.09576 0,0 z m 29.50167,0.10044 c 3.80608,-5.80249 -3.96239,-9.59055 0,0 z m 295.18679,-0.20874 c 10.53135,-1.60747 -11.49068,-8.42957 0.26119,-11.79126 14.20762,-9.96743 -18.02533,-15.85239 -8.21735,-9.48098 7.7203,-2.29301 11.41883,7.82277 3.64489,8.62366 -5.33298,3.17448 1.43181,10.83427 4.31127,12.64858 z m 12.81402,-0.49682 c 4.89926,-10.41958 -9.30156,-15.86045 0,0 z m -345.57637,-0.93514 c 1.41856,-4.6215 -2.53058,1.38815 0,0 z m 20.69037,-0.81527 c 1.47605,-2.38841 -3.92203,-3.047 0,0 z m 10.79977,-0.72443 c 5.38734,-2.37646 -0.96641,-9.05734 1e-5,-2e-5 z m 7.71554,-2.64044 c 3.45316,-6.9666 -4.34055,1.10293 0,0 z m 17.13004,0.52917 c 3.7647,-2.03329 -4.42023,-3.86688 0,0 z m -69.95613,-4.58611 c 4.9806,-2.90261 -2.57477,-1.07274 0,0 z m 63.56563,-1.05833 c 1.56141,-5.24117 -3.08612,-0.95924 0,0 z m -39.31675,-0.59396 c 3.4752,-3.10338 -2.14025,-2.64603 0,0 z m 7.70378,0.24118 c 2.65398,-2.0303 -2.25977,-1.31726 0,0 z m -16.12266,-0.51589 c 5.46348,-2.51954 -4.01593,-1.54169 0,0 z m 4.35166,-9.20412 c 0.1643,-1.78793 -4.20944,-0.56583 -0.57474,-0.18275 z m 19.24887,-1.28087 c 5.0492,-2.02637 -4.62738,-1.82954 0,0 z m 25.9479,-1.56683 c -4.54319,-4.94006 8.75227,2.11092 -2.11344,-3.78426 -0.71819,1.43056 0.1552,4.27161 2.11344,3.78426 z m -50.99407,-32.44162 c 4.61355,-1.26099 -3.3307,-0.50743 0,0 z m 16.6141,-0.23442 c 6.73086,-0.68738 -0.41904,-0.18535 3.31293,-3.99886 -3.18077,3.26015 -4.00336,-9.25983 -4.66578,1.46034 0.63673,0.60681 0.26172,1.81606 1.35285,2.53852 z m -11.70511,0.0882 c 1.65133,-8.38631 -3.08151,-8.95644 -2.1365,-0.61996 3.46958,-2.55758 0.59069,-0.84043 2.1365,0.61996 z m 3.30551,-0.1393 c 4.44388,0.21356 10.20483,-4.48053 4.80522,-9.77181 -4.79331,-0.29951 -3.43781,1.66932 -10.6534,0.56428 -5.97289,-5.37708 9.05445,-0.5814 12.80536,-1.70115 -2.33299,-3.57843 -16.32986,-1.51658 -23.049,-2.08361 -11.34945,1.95595 -5.903,-4.42706 -9.98581,-1.86497 -5.00659,-0.94449 -7.25725,-3.06944 -1.5885,1.55345 -1.87006,1.39768 -5.58458,0.77752 -2.59196,3.13288 8.50766,-0.93376 0.82555,-0.24645 4.70137,0.78124 8.60677,-3.10497 0.5829,0.60112 11.19035,0.4664 3.26058,0.6689 13.23294,-0.0199 14.95948,3.33637 -2.05386,10.93828 -0.0588,-4.51951 -2.59941,1.37069 -0.25946,1.46072 -0.40727,4.63969 2.0063,4.21623 z m 4.06921,-2.02632 c -1.86238,-8.7727 0.92814,-9.01597 0,0 z m -1.96818,-1.71493 c -0.53547,-4.79246 2.1683,-4.30608 -4e-5,0 z m -11.38048,-5.64985 c -3.43057,-1.63265 1.28184,-2.35612 0,0 z m -29.49558,8.11929 c 3.63652,-3.45277 -2.58783,-0.67361 0,0 z m 66.15824,-4.93889 c 1.97124,-3.04834 -2.07271,-0.49419 0,0 z m -19.33541,-1.59749 c 11.81853,2.18073 -4.083,-2.9485 0,0 z m 13.22917,-0.20365 c 0.14145,-2.8242 -3.77964,-2.52153 0,0 z m -3.97295,-1.37386 c 6.59277,-2.32948 -3.12457,-0.74066 0,0 z m -20.39757,-0.36399 c 4.46435,-0.63578 -1.21912,-2.27627 0,0 z m 16.08323,-0.7472 c -0.73467,-2.62668 -4.01896,-0.0471 0,0 z m -4.56085,-0.43926 c 5.02121,-1.40941 26.58914,-5.17153 9.79166,-3.18209 -1.45235,1.49216 -12.62776,-0.53441 -9.79166,3.18209 z m -43.27982,-1.27178 c 1.87997,-1.78752 -0.83855,-3.80244 0,0 z m 85.10869,-0.45862 c 2.87175,-3.04343 -2.81091,-1.08268 0,0 z m -22.83806,-1.56985 c 5.86519,0.75176 5.5774,-3.45601 0,0 z m -26.5166,-0.56595 c 1.15699,-3.40895 -1.80553,0.34751 0,0 z m 37.81561,0.47235 c 24.94733,-0.47065 3.53809,-3.63689 0,0 z m -48.7507,-2.59604 c -1.38167,-1.93077 -0.77868,-1.10375 0,0 z m -26.31932,-1.4324 c 1.82071,-9.90617 -5.5116,0.83454 10e-6,0 z m 20.68584,-0.96981 c 3.0716,-1.12878 -3.09941,-0.92125 0,0 z m 5.04021,-0.20353 c 0.94914,-1.59444 -1.21599,-3.37751 0,0 z m 73.69076,-4.02519 c 0.7058,-2.56408 -3.18095,0.45632 0,0 z m -122.86801,0.0601 c 4.2968,-3.23812 -1.75147,-11.85597 0,0 z m 23.4212,-0.35818 c 0.31673,-0.82801 -1.73883,-6.60286 0,0 z m 45.61345,0.005 c 4.07765,-0.34527 -2.42442,-2.08785 0,0 z m 97.81966,-1.86867 c 3.10909,-4.19516 -4.01332,-3.01667 0,0 z m -118.83643,-0.60572 c 0.84386,-4.14537 -3.48467,0.15054 0,0 z m -16.79492,-0.4554 c 2.99681,-0.86041 0.22108,-2.4155 0,0 z m 28.46929,-1.75978 c 4.14707,-4.08825 -3.21075,-2.67938 0,0 z m -3.48688,0.10391 c 3.9296,-1.56298 -3.15524,-2.077 0,0 z m 3.52272,-3.32619 c 2.67967,-2.35228 -2.65538,-0.48781 0,0 z m -20.57335,-3.7322 c 4.42145,-0.50301 -1.91439,-2.70638 0,0 z m 21.04649,0.003 c 4.87026,-2.32298 -2.34369,-4.27254 0,0 z m 102.66356,-2.83789 c 5.37356,-4.9029 -2.66046,-5.16814 0,0 z m -104.53942,-3.77116 c 2.71801,-2.00238 -1.37638,-2.77087 0,0 z m -16.49691,-5.3854 c 3.629,-2.08081 -11.28382,-8.61099 -8.19586,-5.68357 -0.0703,1.23117 5.4268,3.67867 8.19586,5.68357 z m 8.0674,-1.34059 c 0.57312,-4.65461 7.78943,-1.64195 2.10531,-7.03842 -3.03262,-10.7147 -23.62693,1.96263 -8.2279,-3.22546 9.33861,1.93933 5.52618,4.49794 7.21101,9.18296 -3.81666,-0.33347 -1.45852,0.81975 -1.08842,1.08092 z m -1.20704,-1.48179 c 1.35402,-4.47201 -2.19435,-2.09395 0,0 z m 19.55394,-3.3616 c 1.82355,-9.74107 13.33999,-10.57085 20.5097,-8.56202 -6.22941,-5.91674 -24.31704,0.29608 -20.5097,8.56202 z m 24.90781,-3.38107 c 6.63847,-3.22373 7.10197,-11.43335 3.41811,-15.91363 -5.25167,-10.59931 -6.60192,-4.50019 -1.15291,-0.47499 3.50002,5.49713 0.34214,15.16278 -2.2652,16.38862 z m -62.32427,-0.0483 c -4.0104,-6.04895 12.01847,-22.70029 8.1845,-20.54931 -4.74502,5.52107 -12.61191,12.38369 -8.1845,20.54931 z m -34.83326,-0.26459 c 3.40893,-0.78097 -0.90395,-3.97423 0,0 z m 79.08174,-0.22624 c 0.48214,-2.25267 -3.2155,-0.3387 0,0 z m 70.17299,-4.08284 c 2.4019,-2.61333 -3.33001,-2.05087 0,0 z m -39.20195,-15.25955 c 4.5923,-0.90657 -4.2059,-2.16271 0,0 z m 101.81076,-1.59803 c -1.44954,-4.18984 8.3131,-27.53409 2.65929,-15.61953 -3.25431,3.66434 -3.1198,10.76244 -2.65929,15.61953 z m -119.80968,-1.05834 c 2.29503,-2.45803 -3.36901,-2.34256 0,0 z m 40.80979,-1.61582 c 0.77257,-4.21586 -2.99921,0.72671 0,0 z m -40.14938,-0.33811 c -0.76524,-3.16613 -5.54697,0.94147 0,0 z m 23.14445,0.19005 c 0.88158,-2.92243 -2.81879,-1.41482 0,0 z m -55.27892,-1.67452 c 1.81427,-4.72413 -4.91012,-1.16212 0,0 z m 11.60949,-0.0948 c 2.35585,-1.09708 -3.29224,-0.8967 0,0 z m -7.95175,-3.08161 c 0.60604,-5.40451 -2.16944,0.94649 0,0 z m -37.871,-2.2527 c -0.87278,-2.61112 -3.99662,-0.0993 0,0 z m 147.02119,-2.4486 c -0.42939,-3.56588 -1.32094,2.79214 0,0 z m -108.14498,-2.08947 c 2.2472,-2.36005 -1.1303,-2.79519 0,0 z m 1.72275,-2.46945 c 2.72624,-1.89362 1.38464,-6.24289 0,0 z m -1.32514,-4.09751 c 2.01695,-3.28547 -2.69861,0.88418 0,0 z m 150.27963,-0.13582 c 1.2459,-2.33665 -1.67959,-2.30115 0,0 z m -100.08729,-2.11664 c -0.15138,-3.99821 -1.95584,-2.81818 0,0 z m 99.60518,-0.0111 c 3.16705,-2.82139 -1.01322,-1.75371 0,0 z m -166.03215,-7.04445 c 4.32216,-5.87927 0.0537,-10.7239 0,0 z m 162.53376,-4.93889 c 1.78291,-5.06671 -0.84122,-7.521393 0,0 z m -134.61922,-2.19974 c 0.71415,-3.758083 -1.96631,1.13697 0,0 z m -24.97628,-0.2697 c 3.8439,-5.862193 -5.68715,-4.812233 0,0 z m 12.63418,-0.35553 c 1.11043,-5.597353 0.41926,-0.81701 0,0 z m 149.90878,-5.380913 c 4.33607,-10.04267 0.30908,-10.81663 0,0 z m -151.40809,-2.22662 c 3.64252,0.56802 0.7516,-4.77674 0,0 z m 142.8659,-2.37822 c 2.87038,-0.87484 -2.20923,-2.15749 0,0 z m -142.09697,-1.63784 c -0.15339,-3.92205 -1.42193,2.145 0,0 z m 138.66585,0.59021 c 3.09461,-2.57889 -1.57408,-1.45181 0,0 z m -28.83895,-1.79572 c 2.97885,-4.75625 -4.52012,-1.8223 0,0 z m -180.7986,-11.50982 c 3.66857,-0.82077 -3.66857,-0.82077 0,0 z m 6.88456,-0.22727 c 2.52634,-4.69644 -6.9994,0.1106 0,0 z m -3.75735,-0.83106 c 2.30598,-1.76208 -2.17482,-1.64316 0,0 z m 63.66483,-0.49589 c 0.15183,-5.3593 0.38534,-0.70232 0,0 z m -56.40861,-1.703 c -1.84614,-2.42043 -5.06107,1.02619 0,0 z m 50.98759,0.008 c 1.98805,-1.12171 -3.31931,-0.1748 0,0 z m -13.64671,0.0742 c 4.90034,-1.91015 -3.10561,-2.10509 -2.34973,-5.32706 -1.67676,-0.48401 -1.65959,4.67194 2.34973,5.32706 z m 4.00083,-1.05833 c 1.54835,-0.93821 0.90177,-5.22143 -0.89239,-1.62729 l -0.0327,1.09779 0.92514,0.52917 z m -8.59806,-0.42481 c 4.38688,-2.49826 -2.53953,-0.70783 0,0 z m -17.17709,-1.33908 c 3.13798,-1.01087 -3.63996,-0.64577 0,0 z m 22.55695,-2.48658 c -0.16953,-2.07012 -3.88223,-2.0709 0,0 z m 1.76419,-1.51889 c 1.09404,-3.35765 -3.70857,1.36605 0,0 z m 1.12103,0.83022 c 2.60918,-1.65962 -0.85563,-2.98619 0,0 z m 146.45619,-0.34905 c 10.21969,1.40609 -1.8252,-3.26272 0,0 z m -4.9137,-0.88542 c 8.90969,-2.68759 -10.73881,-1.26711 3.3e-4,4e-5 z m -4.64347,-0.55305 c 0.31051,-2.69513 -3.37186,-0.63586 0,0 z m -101.83736,-1.91838 c 3.58692,-3.14849 -2.03948,-2.20509 0,0 z m -8.43621,-2.53669 c 10.48231,-3.49077 -10.12724,-0.38663 0,0 z m 14.05738,-1.16549 c 1.20857,-4.77988 -6.08828,-1.99942 0,0 z m -54.68055,-0.53919 c 2.58748,-3.04413 -8.76373,-0.96212 0,0 z m -32.19097,-0.34435 c 9.53203,-3.8808 -4.93321,-3.06478 0,0 z m 90.1865,-0.18018 c 4.33092,-2.82539 -2.533,-8.35906 0,0 z m -9.19943,-0.34738 c 3.17225,-1.86929 -1.92057,-3.41318 0,0 z m -83.01777,-1.39195 c 9.97843,-5.26603 -1.94847,-2.37694 0,0 z m 94.93742,-1.43027 c 1.51466,-5.62933 -1.48542,-9.68857 -0.45647,-3.52778 0.76588,1.1361 -1.38973,3.00361 0.45647,3.52778 z m -90.15971,-2.27773 c 4.62259,-1.45912 -2.9132,-2.71175 0,0 z m 94.92198,0.16107 c 2.3912,-2.05393 -1.96092,-2.00982 0,0 z m -86.33624,-0.35278 c 8.72091,1.26024 -3.53487,-5.83101 0,0 z m 88.50336,-1.12744 c 5.97287,-7.07865 2.2628,-2.71273 2.55764,-9.51455 3.69748,-3.22361 -2.16921,-2.26242 -4.27653,0.41148 -5.76419,7.52136 1.09513,-1.95965 -4.93329,1.51965 -5.2043,6.03015 3.31984,1.82091 6.61759,-0.25594 3.68923,3.15584 -1.42011,3.57111 0.0346,7.83936 z m -12.9953,-0.59884 c 4.59816,-1.00639 -0.78448,-1.76857 0,0 z m -80.31278,-0.6145 c 10.21222,-1.12094 -6.15556,-0.62563 0,0 z m 126.20587,0.22411 c 2.44842,-2.315 -4.08759,-2.57563 0,0 z m -14.71368,-1.39645 c 3.70544,-6.12314 -2.64423,-0.1591 0,0 z m -21.77741,-0.0147 c 6.32698,-5.18506 0.66478,0.37634 0,0 z m -8.10695,-0.44097 c 2.69181,-0.8006 -3.44286,-1.62093 0,0 z m -88.91754,-0.26459 c -0.49263,-4.96056 -3.78074,-0.90987 0,0 z m 106.51527,-0.47036 c 5.23268,-4.47106 -2.12032,-3.96144 0,0 z m -109.9037,-0.5746 c 4.44887,-1.34685 -3.01619,-2.44564 0,0 z m 87.90867,-0.47895 c 6.92454,1.09543 -1.21768,-2.62027 0,0 z m 31.88435,0.42737 c 3.08464,-0.41025 -3.86887,-2.30536 0,0 z m 8.69146,0.0382 c 4.09729,-1.25023 -1.35305,-2.64707 0,0 z m -2.6071,-1.12406 c 3.0742,-3.41134 -2.79508,-0.27554 0,0 z m 16.71069,-0.16517 c 0.53622,-7.81818 -3.90377,1.35765 0,0 z m 4.52928,-0.82744 c 1.46938,-2.63452 -1.52707,-1.8056 0,0 z m 14.74442,-0.0209 c 5.47119,-1.81076 -6.92238,-1.63009 0,0 z m -51.87104,-0.33182 c 1.82331,-1.79758 2.6919,-9.59345 0,0 z m -13.77892,-1.05834 c 8.38921,-3.95516 0.20809,-3.72861 0,0 z m 34.10986,0 c 5.063,-2.60506 -1.91343,-0.98416 0,0 z m 37.53732,-0.005 c 1.94761,-2.18382 -6.32153,-1.32827 0,0 z m -29.54514,-1.40572 c 5.62726,-0.47918 -0.84195,-3.31858 0,0 z m -28.98478,-0.6349 c -0.18459,-2.13746 -2.45378,1.44695 0,4e-5 z m 16.56126,0.48371 c -3.83511,-2.87706 -1.55287,-1.2471 0,0 z m 9.89675,-1.0545 c 1.55196,-2.76603 -4.90201,-0.0137 0,0 z m -25.2042,-0.48489 c 12.41553,-6.26374 3.65008,-6.18431 0,0 z m 41.75862,-0.0128 c 12.49285,-3.63442 -8.05554,-1.46924 0,0 z m -47.9353,-0.74417 c 14.11118,-1.69831 -1.19364,-5.36939 -0.53951,0.20928 l 0.53947,-0.20928 z m 13.11069,0.33086 c 2.24569,-1.59051 -1.22885,-4.71967 0,0 z m 49.81565,-0.24303 c -1.16577,-3.76985 -4.40295,-0.71827 0,0 z m -39.13699,-1.09748 c 3.6251,-5.38098 -5.4365,-0.38051 0,0 z m -8.01058,-0.12832 c 2.97027,-3.38209 -3.7007,-2.13592 0,0 z m -11.39946,-2.34253 c 6.82476,-1.51607 -0.5905,-1.30271 0,0 z m 51.69101,0.49892 c 3.11906,-2.33314 -4.10954,-0.85602 0,0 z m -46.80153,-0.48114 c 2.65531,-1.34049 -2.58685,-2.64012 0,0 z m 8.64328,-0.43976 c 3.13071,-0.69321 9.17964,-1.71809 1.61989,-2.47485 -3.34199,-2.06666 -2.9606,1.24463 -1.61989,2.47485 z m 24.71664,-0.15558 c 2.24697,-1.41966 -4.27267,-0.46853 0,0 z m 4.27672,-0.64283 c 2.6832,-2.59384 -3.01629,-6.86769 -2.22702,-2.0238 2.26718,-1.74914 -0.53192,2.28216 2.22702,2.0238 z m -21.6608,-0.59614 c 1.35996,-6.45127 -2.18468,0.45358 0,0 z m -12.37472,-0.19435 c 5.54982,-4.26303 -5.65513,-4.52728 0,0 z m 36.7741,0.17779 c 9.08454,-5.21013 -4.37316,-2.92131 0,0 z m -39.34727,-0.35278 c 2.90966,-1.3135 -1.05959,-1.63833 0,0 z m 45.71833,-0.35277 c 9.05639,-0.59926 -2.81303,-2.79349 0,0 z m 60.00916,-0.005 c 2.75083,-2.47418 -1.06423,-3.7737 0,0 z m -83.87634,-1.05294 c 3.33763,-1.56947 -2.4562,-3.28013 0,0 z m -2.70792,-1.38843 c 6.39791,-1.94677 -5.91662,-1.40376 0,0 z m 85.451,-0.37546 c 1.999,-1.93945 -2.53915,-1.15471 0,0 z m -89.42917,-0.70555 c 2.59382,-1.00106 -2.96556,-1.15703 0,0 z m 26.47153,-0.19742 c 1.00238,-2.33698 -2.67875,-0.49947 0,0 z m -28.46148,-1.40438 c 3.35388,-4.67334 -3.47316,-0.0814 0,0 z m -129.36096,-0.16285 c 6.865,-4.33835 0.74321,-5.64992 0,0 z m 81.91707,-1.21288 c 3.92851,-4.5021 -3.87537,0.76611 0,0 z m 74.2296,0.50732 c -4.0316,-3.76709 -3.02602,0.51224 0,0 z m -35.03151,-1.41946 c 3.57814,-2.35156 -3.61817,-0.3271 0,0 z m 29.74704,-1.83145 c 7.0981,-1.81986 -2.32955,-0.94118 0,0 z m -106.11944,-2.04075 c 1.90235,-3.10641 -3.80913,-3.03741 0,0 z m -48.0745,-1.07176 c 3.56185,-1.4025 -3.50791,-3.28361 0,0 z m 221.21833,-0.69753 c 3.20901,-3.98961 -3.9878,-1.01738 0,0 z m -1.65438,-3.30857 c 4.93386,-1.39521 -4.42607,-1.49865 0,0 z m -151.45291,-0.56659 c 3.21458,-3.20746 -3.58269,-1.65571 0,0 z m -59.21447,-7.43952 c 3.20434,-4.8440996 -6.70313,-2.25219 0,0 z M 342.70726,6.7986274 c 4.75497,-3.98458 -3.52485,0.19525 0,0 z m -95.67403,-2.99052 c 1.43914,-0.8062 1.58753,-1.83825 0,0 z m -13.21088,-0.33358 c 1.16795,-2.03571 -3.73905,-0.95497 0,0 z m 7.40769,0.13318 c 7.09019,-0.31735 -1.76496,-6.65848 0,0 z m 8.82262,-1.41651 c 1.897,-2.20300998 -2.38464,-3.33218 0,0 z m 192.16316,-0.0617 c 0.0675,-2.99721998 -3.38113,-0.13846 0,0 z m -8.07717,-1.37185998 c 3.73,-0.80572 -4.01416,-1.80757002 0,0 z m 9.46154,-0.44252 c 0.94698,-2.86132002 -4.05846,-1.1823 0,0 z M 250.49314,-2.7422926 c 5.78493,0.70177 -0.37501,-2.9333 0,0 z m 3.31999,-0.70555 c 5.91504,-2.92576 -5.32194,-1.3015 0,0 z m 176.30301,-0.93511 c 4.20453,-2.14789 -4.58908,-2.57529 0,0 z m -176.45858,-0.476 c -1.198,-2.71504 0.2831,-0.34342 0,0 z m 183.65426,-0.35278 c -0.59431,-3.67049 -3.51864,-1.96873 0,0 z m -185.23287,-1.12066 c 1.80418,-1.42191 -2.87624,-0.74556 0,0 z m 4.03831,-0.12657 c 4.08846,-3.6907904 0.84564,-5.7745904 -0.39578,-0.10132 z m 172.45089,-2.20576 c 0.38214,-7.4057404 -2.40842,1.5129 0,0 z m -24.16958,-5.7192304 c 0.58559,-4.32923 -3.49574,-1.86393 0,0 z m 8.79517,-1.16195 c 1.61985,-6.07247 4.52702,-4.44764 3.3492,-6.13197 -4.10339,-5.76839 -4.56229,-4.1878 -3.73085,-0.67536 -2.34805,-1.65071 3.93346,8.35691 -3.90305,1.3863 2.1883,1.51188 2.01726,4.1052 4.2847,5.42103 z m -40.65982,-0.34616 c -1.83043,-11.15361 0.20114,2.14609 0,0 z m 8.32993,-1.5787 c 3.42518,-10.84286 -7.85777,-14.14046 -1.07707,-3.71237 -1.29972,2.45241 1.28326,1.77958 1.07707,3.71237 z m 40.91442,0.0272 c 1.28085,-1.86716 -4.73813,-3.85338 0,0 z m -10.83659,-0.12785 c -1.84213,-3.45542 -5.65487,-4.25372 -0.9319,-0.45701 z m -7.11616,-1.74509 c 7.20053,-4.18512 -9.1553,-9.85882 -0.008,-3.27621 1.10481,1.14538 -0.62786,2.18141 0.008,3.27621 z m -11.93444,-0.45264 c -0.93507,-3.79762 -0.69537,-0.83211 0,0 z m -20.90303,-0.61199 c 1.20895,-5.34795 -2.69202,-5.38896 0,0 z m -81.00413,-0.35278 c 3.57281,-0.54678 -1.09878,-2.22888 0,0 z m 128.78251,-0.98582 c 3.18631,-1.60536 -3.98883,-0.79848 0,0 z m -25.46992,-1.98668 c 1.05933,-3.28309 -1.80097,0.55575 0,0 z m -93.08203,-6.19972 c 2.44224,-1.25214 -2.88184,-1.53524 0,0 z m 311.00063,-8.11393 c 8.07396,-3.80535 11.19506,-12.6743 11.60366,-20.47883 9.72564,-12.37372 9.07638,-12.10725 8.98652,4.44001 9.30844,-13.36241 10.2068,4.52059 20.22391,2.39004 5.74419,-6.159 -9.07381,1.97852 -10.42853,-12.01581 -16.72244,19.51953 0.43723,-20.30462 -9.2459,-16.13958 0.004,5.5541 -8.44078,23.96322 -13.76977,14.71967 -9.50538,-0.2543 -9.99018,2.61345 -10.91179,10.64743 11.39524,5.72241 -2.47425,3.30542 3.5419,16.43707 z m 1.29589,-3.2779 c 2.62204,-17.27695 13.19969,-14.00107 0,0 z m -0.11557,-12.94988 c -8.14751,-9.8847 15.97794,-8.67162 2.12513,-0.44097 l -2.12524,0.44097 z m -274.24097,15.875 c 5.1623,-6.46144 2.03401,-1.77462 0,0 z m -255.289571,-1.19143 c 6.06356,-4.44331 5.77544,-18.67032 14.03475,-16.80024 18.810231,3.2638 11.179251,0.23288 1.70424,-3.40528 12.847841,-12.93981 -8.20728,2.95243 -6.35394,-2.59194 -9.60969,-7.3797 -9.94341,8.92519 -2.5473,4.66693 -4.17173,4.05116 -17.11288,14.88022 -6.83775,18.13053 z m -0.11889,-3.56095 c -1.21772,-6.70707 7.90334,-11.60235 0,0 z m 3.88237,-17.11984 c -1.24617,-2.86079 5.44282,-1.8766 0,0 z m 11.44445,-2.11667 c -3.78934,1.0795 3.822181,-2.5902 0,0 z m 491.853701,13.83924 c 13.33267,-5.99318 -21.66694,-8.13172 -2.71738,-11.94792 6.75477,-8.12045 -10.04224,-17.98847 -15.5738,-10.94709 2.46764,7.70845 2.42596,28.14476 6.58372,13.64188 4.30487,2.47237 7.06345,7.44381 11.70746,9.25313 z m -9.62166,-13.34096 c -14.1627,-4.41576 4.47891,-16.2105 5.62749,-1.16701 l -1.02619,0.53373 -4.60128,0.63328 z m -521.876181,10.42441 c 8.24811,-3.96412 25.46365,-1.1536 18.61305,-8.50645 3.7708,-11.05531 -1.72719,-19.91799 -3.04596,-1.10802 -4.70581,-1.6751 -18.9842,15.38271 -16.6168,2.6394 19.73561,-6.7529 -13.20208,-9.327 -3.61057,6.52222 z m 10.66754,-3.86713 c -0.65837,-6.25246 7.23643,-3.09182 0,0 z m -10.06107,-5.95097 c -0.67797,-3.38485 5.70793,-1.68689 0,0 z m 538.487031,9.58767 c 1.60765,-19.52079 -3.68377,-8.63896 -2.51361,-1.2832 1.21169,1.05292 1.41176,0.73504 2.51361,1.2832 z m 63.04748,-0.90081 c 10.5873,0.72357 11.00973,-11.55536 8.22872,-6.17304 -21.15283,10.53733 -1.76256,-15.60533 -2.18793,-13.1572 -10.06791,14.26107 -7.84171,-8.34146 -11.03321,-3.75868 0.36976,11.27692 -5.86512,16.93983 4.99242,23.08892 z m -649.672901,-1.97032 c 1.06576,3.59656 -7.0505899,-37.44813 -4.6424199,-9.88736 0.77908,3.67998 -2.44236,11.55685 4.6424199,9.88736 z m 17.14968,-0.76557 c -2.07897,-7.53678 11.64114,-11.4707 9.89811,-2.14957 -1.50934,-7.33247 18.97578,-13.70913 1.25593,-10.19766 -2.10636,-21.05455 -3.17106,11.3463 -11.29306,1.95698 -0.0739,-5.42606 12.52101,-3.68414 -0.59393,-6.87026 -3.89626,4.68322 -2.85203,14.61756 -0.57311,15.673 l 0.50512,1.14653 0.80079,0.44097 z m -11.88506,-1.54609 c 10.40076,1.83949 8.76028,-19.41997 -2.13786,-5.74411 -1.64188,2.41558 -0.007,4.68608 2.13786,5.74411 z m 1.38062,-5.05581 c -2.58032,-2.89935 9.27155,-2.61384 0,0 z m 581.014281,-4.72791 c 2.92879,-6.32661 -11.44078,-1.23874 0,0 z"
       id="path21"
       inkscape:connector-curvature="0" />
  </g>
</svg>
